<svg xmlns="http://www.w3.org/2000/svg" xmlns:xlink="http://www.w3.org/1999/xlink" width="460" height="252.914" viewBox="0 0 460 252.914">
  <defs>
    <linearGradient id="linear-gradient" x1="0.5" x2="0.5" y2="1" gradientUnits="objectBoundingBox">
      <stop offset="0" stop-color="#e76e09"/>
      <stop offset="1" stop-color="#743705"/>
    </linearGradient>
  </defs>
  <g id="icon-cafe-racer" transform="translate(-638.976 -409.974)">
    <path id="Path_57" data-name="Path 57" d="M1075.549,548.14l4.361-2.638a70.5,70.5,0,0,0-76.406-13.084l-43.56-69.352-3.769,2.369L940.13,440.558A4.149,4.149,0,0,0,935.014,439l-3.715,1.615-4.469-12.061-8.346-3.931c-.377-6.569-2.961-12.115-6.569-14.646v32.791c3.5-2.423,6.031-7.754,6.515-14.107l5.492,2.585,4.038,10.823-35.322,15.4a4.136,4.136,0,1,0,3.285,7.592l39.2-17.123L949.229,469.8l-3.985,2.477,20.084,31.984H944.922a19.6,19.6,0,0,0,2.692-10.607c-.592-15.077-7.915-33.168-14.807-35.484-8.184-2.746-55.406,24.5-86.367,41.891-.485-.485-.969-.969-1.508-1.454a14.77,14.77,0,0,0-7.861-3.769c-11.146-1.454-61.814,6.461-80.39,3.231s-21.053-12.761-34.353-9.1c-13.3,3.715,4.308,22.346,10.392,24.176,4.469,1.292,78.613.808,109.628.431a8.027,8.027,0,0,0,1.131.108h71.613a4.664,4.664,0,0,0,1.723.323h54.652l17.069,27.245a70.737,70.737,0,0,0-25.146,73.875l7.215-4.308a64.821,64.821,0,1,0,104.944-62.675Zm-142.8-85.129c2.692,2.531,7.538,17.338,7.538,17.338s-6.731-13.192-10.769-13.192-25.9,7.269-25.9,7.269S930.061,460.48,932.753,463.011ZM1034.2,634.776a36.7,36.7,0,0,1-26.169-62.46l7.538,11.953a23.217,23.217,0,1,0,18.684-9.423,22.423,22.423,0,0,0-3.823.323l-7.538-12.061a36.733,36.733,0,1,1,11.307,71.667Z" fill="url(#linear-gradient)"/>
    <path id="Path_58" data-name="Path 58" d="M963.445,455.634c0,8.077,9.1,14.807,21,15.992,1.885.215,3.5-.969,3.5-2.477v-.108c2.585,0,4.685-5.923,4.685-13.192s-2.1-13.192-4.685-13.192v-.592c0-1.454-1.615-2.638-3.5-2.477C972.544,440.827,963.445,447.5,963.445,455.634Z" fill="url(#linear-gradient)"/>
    <path id="Path_59" data-name="Path 59" d="M953.052,577.054a4.107,4.107,0,0,0-5.869.808l-39.9,54.222a15.533,15.533,0,0,1-12.492,6.354H876.539v-3.284H789.526l6.408,15.453h80.606v-3.931h17.177a25.911,25.911,0,0,0,20.838-10.553l39.2-53.253A4.271,4.271,0,0,0,953.052,577.054Z" fill="url(#linear-gradient)"/>
    <path id="Path_60" data-name="Path 60" d="M880.416,525.525c-12.815,0-23.261,8.184-23.261,18.307,0,5.654,3.285,10.715,8.4,14.107l4.469,33.976h-8.831a6.871,6.871,0,0,0-6.892,6.892v12.977a6.871,6.871,0,0,0,6.892,6.892h38.445a6.871,6.871,0,0,0,6.892-6.892V598.808a6.871,6.871,0,0,0-6.892-6.892h-8.831l4.469-33.976c5.115-3.338,8.4-8.4,8.4-14.107C903.623,533.763,893.231,525.525,880.416,525.525Zm0,85.99a6.246,6.246,0,1,1,6.246-6.246,6.246,6.246,0,0,1-6.246,6.246Zm6.246-19.546H874.17l-4.2-31.715a29.116,29.116,0,0,0,20.892,0Z" fill="url(#linear-gradient)"/>
    <path id="Path_61" data-name="Path 61" d="M842.186,529.779,807.51,545.824a4.239,4.239,0,0,0-.862,7.161l5.492,4.415a4.2,4.2,0,0,0,4.469.538l28.969-13.407a4.367,4.367,0,0,0,2.477-3.769l.162-7.054a4.239,4.239,0,0,0-6.031-3.931Z" fill="url(#linear-gradient)"/>
    <path id="Path_62" data-name="Path 62" d="M846.871,546.471,817.148,560.2a2.518,2.518,0,0,0,2.1,4.577l29.722-13.73a2.571,2.571,0,0,0,1.238-3.338,2.5,2.5,0,0,0-3.338-1.238Z" fill="url(#linear-gradient)"/>
    <path id="Path_63" data-name="Path 63" d="M849.94,553.04l-29.722,13.73a2.518,2.518,0,1,0,2.1,4.577l29.722-13.73a2.571,2.571,0,0,0,1.238-3.338,2.541,2.541,0,0,0-3.338-1.238Z" fill="url(#linear-gradient)"/>
    <path id="Path_64" data-name="Path 64" d="M852.955,559.609l-29.722,13.73a2.518,2.518,0,1,0,2.1,4.577l29.722-13.73a2.518,2.518,0,1,0-2.1-4.577Z" fill="url(#linear-gradient)"/>
    <path id="Path_65" data-name="Path 65" d="M856.024,566.232,826.3,579.962a2.571,2.571,0,0,0-1.238,3.338h0a2.571,2.571,0,0,0,3.338,1.238l29.722-13.73a2.571,2.571,0,0,0,1.238-3.338h0a2.5,2.5,0,0,0-3.338-1.238Z" fill="url(#linear-gradient)"/>
    <path id="Path_66" data-name="Path 66" d="M862.378,574.039a2.571,2.571,0,0,0-3.338-1.238l-29.722,13.73a2.518,2.518,0,0,0,2.1,4.577l29.722-13.73a2.5,2.5,0,0,0,1.238-3.338Z" fill="url(#linear-gradient)"/>
    <path id="Path_67" data-name="Path 67" d="M953.322,545.824l-34.676-16.046a4.235,4.235,0,0,0-6.031,3.984l.162,7.054a4.367,4.367,0,0,0,2.477,3.769l28.969,13.407a4.228,4.228,0,0,0,4.469-.538l5.492-4.415a4.279,4.279,0,0,0-.862-7.215Z" fill="url(#linear-gradient)"/>
    <path id="Path_68" data-name="Path 68" d="M911.861,550.994l29.722,13.73a2.518,2.518,0,1,0,2.1-4.577l-29.722-13.73a2.518,2.518,0,0,0-2.1,4.577Z" fill="url(#linear-gradient)"/>
    <path id="Path_69" data-name="Path 69" d="M907.554,554.278h0a2.495,2.495,0,0,0,1.238,3.338l29.722,13.73a2.518,2.518,0,1,0,2.1-4.577l-29.722-13.73a2.541,2.541,0,0,0-3.339,1.238Z" fill="url(#linear-gradient)"/>
    <path id="Path_70" data-name="Path 70" d="M904.538,560.847a2.5,2.5,0,0,0,1.238,3.338l29.722,13.73a2.518,2.518,0,1,0,2.1-4.577l-29.722-13.73a2.553,2.553,0,0,0-3.338,1.239Z" fill="url(#linear-gradient)"/>
    <path id="Path_71" data-name="Path 71" d="M901.469,567.47a2.5,2.5,0,0,0,1.238,3.338l29.722,13.73a2.518,2.518,0,0,0,2.1-4.577l-29.722-13.73a2.5,2.5,0,0,0-3.339,1.238Z" fill="url(#linear-gradient)"/>
    <path id="Path_72" data-name="Path 72" d="M931.515,586.585l-29.722-13.73a2.518,2.518,0,1,0-2.1,4.577l29.722,13.73a2.5,2.5,0,0,0,3.338-1.238,2.571,2.571,0,0,0-1.239-3.338Z" fill="url(#linear-gradient)"/>
    <path id="Path_73" data-name="Path 73" d="M822.479,617.276,835.617,599.4l-6.946-4.415L815.21,613.292a15.533,15.533,0,0,1-12.492,6.354h-18.2v-3.285H665.2l6.408,15.453H784.518v-3.931h17.176A26.013,26.013,0,0,0,822.479,617.276Z" fill="url(#linear-gradient)"/>
    <path id="Path_74" data-name="Path 74" d="M799.756,517.556H756.088a9.025,9.025,0,0,0-5.546,16.153l25.576,19.869a9.062,9.062,0,0,0,10.553.377L806.756,540.6C817.041,533.709,812.195,517.556,799.756,517.556Z" fill="url(#linear-gradient)"/>
    <path id="Path_75" data-name="Path 75" d="M947.83,448.85l.215.162a6.542,6.542,0,0,0,9.1-.969l12.977-16.153a6.542,6.542,0,0,0-.969-9.1l-.215-.162a6.542,6.542,0,0,0-9.1.969L946.86,439.75a6.492,6.492,0,0,0,.969,9.1Z" fill="url(#linear-gradient)"/>
    <path id="Path_76" data-name="Path 76" d="M659.545,612.484h13.569a36.753,36.753,0,0,1,49.806-47.491l-7.807,11.361a23.189,23.189,0,0,0-26.384,36.13H725.02a23.124,23.124,0,0,0-.162-29.076l7.861-11.469a36.739,36.739,0,0,1,7.915,40.545h29.453a63.733,63.733,0,0,0,1.615-14.43,64.585,64.585,0,0,0-3.069-19.761l6.084.162a70.7,70.7,0,0,0-135.743-3.769l7.269.215a64.836,64.836,0,0,0,113.5,60.575H669.021Z" fill="url(#linear-gradient)"/>
  </g>
</svg>
