<svg id="icon-bobber" xmlns="http://www.w3.org/2000/svg" xmlns:xlink="http://www.w3.org/1999/xlink" width="460" height="255.022" viewBox="0 0 460 255.022">
  <defs>
    <linearGradient id="linear-gradient" x1="0.5" x2="0.5" y2="1" gradientUnits="objectBoundingBox">
      <stop offset="0" stop-color="#e76e09"/>
      <stop offset="1" stop-color="#743705"/>
    </linearGradient>
  </defs>
  <path id="Path_1" data-name="Path 1" d="M389.864,220.935a65.094,65.094,0,0,1,26.81,5.753l2.062-3.311a70.032,70.032,0,0,0-54.65-1.085,4.419,4.419,0,0,1-5.644-2.225h0a4.419,4.419,0,0,1,2.388-5.915,78.974,78.974,0,0,1,62.574,1.737l41.246-65.722,3.8,2.388,16.173-25.073a4.182,4.182,0,0,1,5.156-1.574l3.745,1.628,4.5-12.157,8.412-3.962c.38-6.621,2.985-12.211,6.621-14.762v33.051c-3.528-2.442-6.078-7.815-6.567-14.219l-5.536,2.6L496.886,129l35.6,15.521a4.169,4.169,0,1,1-3.31,7.652l-39.509-17.258L475.449,156.95l4.016,2.5-41.083,65.559a78.573,78.573,0,0,1,29.957,54.108A4.431,4.431,0,0,1,464.106,284h0a4.39,4.39,0,0,1-4.5-3.907,69.768,69.768,0,0,0-25.941-47.6l-2.171,3.473a65.287,65.287,0,1,1-41.625-15.033Zm0,102.354a36.995,36.995,0,0,0,26.375-62.954l-7.6,12.048a23.4,23.4,0,1,1-18.832-9.5,22.605,22.605,0,0,1,3.853.326l7.6-12.157a37.023,37.023,0,1,0-11.4,72.234Z" transform="translate(-324.52 -96.656)" fill="url(#linear-gradient)"/>
  <path id="Path_2" data-name="Path 2" d="M416.092,178.767c-2.388.217-4.5-1.248-4.5-3.148v-.163c-3.31,0-5.97-7.544-5.97-16.878s2.659-16.878,5.97-16.878v-.814c0-1.9,2.117-3.365,4.5-3.148,15.25,1.52,26.918,10.149,26.918,20.514S431.342,177.248,416.092,178.767Z" transform="translate(-313.626 -96.656)" fill="url(#linear-gradient)"/>
  <circle id="Ellipse_2" data-name="Ellipse 2" cx="26.158" cy="26.158" r="26.158" transform="translate(176.328 122.868)" fill="url(#linear-gradient)"/>
  <circle id="Ellipse_3" data-name="Ellipse 3" cx="11.614" cy="11.614" r="11.614" transform="translate(197.71 180.178)" fill="url(#linear-gradient)"/>
  <path id="Path_3" data-name="Path 3" d="M303.752,296.1h-21.22a6.892,6.892,0,0,1,0-13.785h21.22a6.892,6.892,0,0,1,0,13.785Z" transform="translate(-51.283 -96.656)" fill="url(#linear-gradient)"/>
  <path id="Path_4" data-name="Path 4" d="M204.5,242.1a4.38,4.38,0,0,1-5.915-.705,69.871,69.871,0,0,0-111.526,5.7,4.345,4.345,0,0,1-5.915,1.3h0a4.39,4.39,0,0,1-1.357-6.241A78.638,78.638,0,0,1,205.256,235.7a4.427,4.427,0,0,1-.76,6.4Z" transform="translate(249.697 -96.656)" fill="url(#linear-gradient)"/>
  <path id="Path_5" data-name="Path 5" d="M226.48,233.96c-20.08-10.366-40.811-25.833-35.384-29.306,5.481-3.473,15.738,5.047,32.617,11.994,16.824,6.892,26.972-5.319,35-9.932s17.8,8.575,17.8,8.575-10.149,11.722-16.39,20.243C253.941,244.055,246.56,244.326,226.48,233.96Z" transform="translate(68.267 -96.656)" fill="url(#linear-gradient)"/>
  <path id="Path_6" data-name="Path 6" d="M105.159,279.656,81.443,244.977a4.264,4.264,0,0,1,.868-5.861,4.1,4.1,0,0,1,5.861,1.031l24.422,35.71a14.436,14.436,0,0,0,11.94,6.3h66.536v-3.636h106.8l-9.66,15.576h-97.09v-3.636h-65.5A24.833,24.833,0,0,1,105.159,279.656Z" transform="translate(156.482 -96.656)" fill="url(#linear-gradient)"/>
  <path id="Path_7" data-name="Path 7" d="M140.886,249.265a36.965,36.965,0,0,0-35.167,25.507H90.089v3.636H76.033A65.328,65.328,0,0,1,205.2,274.772H176.054a37.035,37.035,0,0,0-35.167-25.507Z" transform="translate(253.772 -96.656)" fill="url(#linear-gradient)"/>
  <path id="Path_8" data-name="Path 8" d="M204,297.782a31.309,31.309,0,0,0,1.194,3.148H175.511a69.123,69.123,0,0,1-1.194-6.838h14.056v3.636H204Z" transform="translate(155.488 -96.656)" fill="url(#linear-gradient)"/>
  <path id="Path_9" data-name="Path 9" d="M176.542,300.93H162.377c.434-1.031.868-2.117,1.194-3.148h16.878l12.7-20.406a69.572,69.572,0,0,1,.6,8.955A65.322,65.322,0,0,1,75,323.941h92.043Z" transform="translate(266.254 -96.656)" fill="url(#linear-gradient)"/>
  <path id="Path_10" data-name="Path 10" d="M206.282,224.246h22.142l64.745,30.663-6.892,16.932H240.418Z" transform="translate(35.55 -96.656)" fill="url(#linear-gradient)"/>
  <path id="Path_11" data-name="Path 11" d="M97.741,242.426,126.5,219.579l9.66,18.452-13.351,10.583,38.966,53.022a15.655,15.655,0,0,0,12.591,6.4H278.951v-3.31H399.214L392.756,320.2H278.951v-3.962H175.565a26.116,26.116,0,0,1-21-10.637l-38.206-51.883-2.876,2.279Z" transform="translate(38.047 -96.656)" fill="url(#linear-gradient)"/>
  <path id="Path_12" data-name="Path 12" d="M290.365,207.259c-11.885-12.754-7.923-38.912,18.126-42.874v-3.853h15.847v4.559c28.98,6.784,63.171,40.052,63.171,40.052C396.139,215.237,302.956,220.773,290.365,207.259Zm3.419-31.965s22.631-13.025,59.318,8.141C353.1,183.434,314.027,153.043,293.784,175.294Z" transform="translate(-137.048 -96.656)" fill="url(#linear-gradient)"/>
</svg>
