<svg xmlns="http://www.w3.org/2000/svg" width="260" height="80" viewBox="0 0 260 170">
  <g id="motor" transform="translate(-20 -15)">
    <path id="Path_22" data-name="Path 22" d="M149.994,15c-22.105,0-40.123,14.936-40.123,33.41,0,10.318,5.666,19.555,14.489,25.746l7.709,62.006H116.837a11.3,11.3,0,0,0-4.555.947,11.834,11.834,0,0,0-3.862,2.726,12.614,12.614,0,0,0-2.576,4.085,13.172,13.172,0,0,0-.9,4.82v23.682a13.163,13.163,0,0,0,.9,4.819,12.608,12.608,0,0,0,2.576,4.086,11.848,11.848,0,0,0,3.862,2.726,11.3,11.3,0,0,0,4.555.947h66.314a11.3,11.3,0,0,0,4.555-.947,11.844,11.844,0,0,0,3.861-2.726,12.592,12.592,0,0,0,2.576-4.086,13.185,13.185,0,0,0,.9-4.819V148.74a13.194,13.194,0,0,0-.9-4.82,12.6,12.6,0,0,0-2.576-4.085,11.83,11.83,0,0,0-3.861-2.726,11.3,11.3,0,0,0-4.555-.947H167.919l7.709-62.006c8.823-6.092,14.488-15.329,14.488-25.746C190.023,30.035,172.1,15,149.994,15Zm0,156.931a10.358,10.358,0,0,1-5.986-1.922,11.289,11.289,0,0,1-3.968-5.115,12.026,12.026,0,0,1-.613-6.586,11.617,11.617,0,0,1,2.949-5.836,10.6,10.6,0,0,1,5.516-3.12,10.224,10.224,0,0,1,6.225.649,10.925,10.925,0,0,1,4.835,4.2,11.9,11.9,0,0,1-1.342,14.391A10.5,10.5,0,0,1,149.994,171.931Zm10.773-35.671H139.22l-7.244-57.878a47.655,47.655,0,0,0,36.036,0Z" fill="#e76e09"/>
    <path id="Path_23" data-name="Path 23" d="M84.052,22.763,24.24,52.046A7.417,7.417,0,0,0,21.4,54.518a8,8,0,0,0-1.345,3.624A8.148,8.148,0,0,0,20.546,62a7.714,7.714,0,0,0,2.207,3.115l9.473,8.058a7.047,7.047,0,0,0,3.719,1.676,6.894,6.894,0,0,0,3.989-.694L89.9,49.688a7.68,7.68,0,0,0,3.04-2.811,8.293,8.293,0,0,0,1.232-4.068l.279-12.873a8.1,8.1,0,0,0-.845-3.777,7.6,7.6,0,0,0-2.472-2.867,7.046,7.046,0,0,0-3.477-1.236A6.964,6.964,0,0,0,84.052,22.763Z" fill="#e76e09"/>
    <path id="Path_24" data-name="Path 24" d="M92.132,53.225,40.864,78.283A4.5,4.5,0,0,0,38.6,80.861a4.841,4.841,0,0,0,.125,3.514,4.45,4.45,0,0,0,2.437,2.392,4.124,4.124,0,0,0,3.322-.132L95.754,61.578a4.607,4.607,0,0,0,2.226-2.592,4.944,4.944,0,0,0-.09-3.5,4.558,4.558,0,0,0-.986-1.463,4.272,4.272,0,0,0-1.445-.945,4.088,4.088,0,0,0-3.327.148Z" fill="#e76e09"/>
    <path id="Path_25" data-name="Path 25" d="M97.426,65.214,46.158,90.271A4.5,4.5,0,0,0,43.9,92.85a4.841,4.841,0,0,0,.125,3.514,4.45,4.45,0,0,0,2.437,2.392,4.124,4.124,0,0,0,3.321-.132l51.267-25.058a4.608,4.608,0,0,0,2.226-2.592,4.945,4.945,0,0,0-.09-3.5,4.485,4.485,0,0,0-2.442-2.376A4.162,4.162,0,0,0,97.426,65.214Z" fill="#e76e09"/>
    <path id="Path_26" data-name="Path 26" d="M102.627,77.2,51.359,102.26a4.5,4.5,0,0,0-2.261,2.578,4.843,4.843,0,0,0,.124,3.515,4.448,4.448,0,0,0,2.437,2.391,4.125,4.125,0,0,0,3.322-.131l51.267-25.058a4.505,4.505,0,0,0,2.261-2.578,4.841,4.841,0,0,0-.125-3.514,4.451,4.451,0,0,0-2.436-2.392A4.126,4.126,0,0,0,102.627,77.2Z" fill="#e76e09"/>
    <path id="Path_27" data-name="Path 27" d="M107.921,89.289,56.653,114.347a4.606,4.606,0,0,0-2.226,2.591,4.945,4.945,0,0,0,.09,3.5,4.535,4.535,0,0,0,2.449,2.355,4.2,4.2,0,0,0,3.309-.1l51.267-25.058a4.608,4.608,0,0,0,2.226-2.592,4.945,4.945,0,0,0-.09-3.5,4.552,4.552,0,0,0-.986-1.463,4.281,4.281,0,0,0-1.445-.945,4.088,4.088,0,0,0-3.327.148Z" fill="#e76e09"/>
    <path id="Path_28" data-name="Path 28" d="M118.88,103.537a4.533,4.533,0,0,0-2.449-2.355,4.213,4.213,0,0,0-3.309.1L61.854,126.335a4.5,4.5,0,0,0-2.261,2.578,4.842,4.842,0,0,0,.125,3.515,4.447,4.447,0,0,0,2.437,2.391,4.124,4.124,0,0,0,3.322-.131l51.268-25.058a4.311,4.311,0,0,0,1.383-1.044,4.6,4.6,0,0,0,.893-1.528,4.8,4.8,0,0,0-.14-3.521Z" fill="#e76e09"/>
    <path id="Path_29" data-name="Path 29" d="M275.748,52.046,215.936,22.763a6.961,6.961,0,0,0-3.633-.711,7.041,7.041,0,0,0-3.5,1.26,7.6,7.6,0,0,0-2.467,2.909,8.1,8.1,0,0,0-.806,3.814l.278,12.873a8.29,8.29,0,0,0,1.232,4.068,7.679,7.679,0,0,0,3.041,2.811l49.967,24.468a6.939,6.939,0,0,0,3.988.684,7.091,7.091,0,0,0,3.72-1.667l9.474-8.058a7.789,7.789,0,0,0,2.217-3.138,8.233,8.233,0,0,0,.5-3.882,8.079,8.079,0,0,0-1.347-3.649A7.494,7.494,0,0,0,275.748,52.046Z" fill="#e76e09"/>
    <path id="Path_30" data-name="Path 30" d="M204.233,61.48,255.5,86.538a4.122,4.122,0,0,0,3.321.132,4.319,4.319,0,0,0,1.444-.939,4.6,4.6,0,0,0,.993-1.452,4.839,4.839,0,0,0,.125-3.514,4.655,4.655,0,0,0-.888-1.527,4.368,4.368,0,0,0-1.373-1.051L207.855,53.127A4.123,4.123,0,0,0,204.534,53a4.448,4.448,0,0,0-2.437,2.392,4.84,4.84,0,0,0-.124,3.514A4.5,4.5,0,0,0,204.233,61.48Z" fill="#e76e09"/>
    <path id="Path_31" data-name="Path 31" d="M196.8,67.474a4.795,4.795,0,0,0-.14,3.52,4.6,4.6,0,0,0,.894,1.528,4.327,4.327,0,0,0,1.382,1.044l51.268,25.058a4.125,4.125,0,0,0,3.322.132,4.316,4.316,0,0,0,1.443-.939,4.6,4.6,0,0,0,.993-1.452,4.8,4.8,0,0,0,.393-1.744,4.853,4.853,0,0,0-.268-1.77,4.657,4.657,0,0,0-.888-1.527,4.357,4.357,0,0,0-1.373-1.051L202.562,65.214a4.162,4.162,0,0,0-3.316-.116A4.49,4.49,0,0,0,196.8,67.474Z" fill="#e76e09"/>
    <path id="Path_32" data-name="Path 32" d="M191.6,79.462a4.795,4.795,0,0,0-.14,3.52,4.6,4.6,0,0,0,.894,1.529,4.316,4.316,0,0,0,1.382,1.044l51.268,25.058a4.162,4.162,0,0,0,1.648.415,4.116,4.116,0,0,0,1.673-.284,4.3,4.3,0,0,0,1.444-.939,4.6,4.6,0,0,0,.993-1.452,4.841,4.841,0,0,0,.125-3.515,4.66,4.66,0,0,0-.888-1.527,4.378,4.378,0,0,0-1.373-1.051L197.361,77.2a4.18,4.18,0,0,0-3.313-.108A4.508,4.508,0,0,0,191.6,79.462Z" fill="#e76e09"/>
    <path id="Path_33" data-name="Path 33" d="M186.308,91.549a4.794,4.794,0,0,0-.14,3.52,4.6,4.6,0,0,0,.894,1.528,4.305,4.305,0,0,0,1.382,1.044L239.712,122.7a4.118,4.118,0,0,0,3.321.132,4.3,4.3,0,0,0,1.444-.94,4.585,4.585,0,0,0,.993-1.452,4.838,4.838,0,0,0,.125-3.514,4.65,4.65,0,0,0-.888-1.527,4.348,4.348,0,0,0-1.373-1.051L192.067,89.289a4.091,4.091,0,0,0-3.328-.148,4.267,4.267,0,0,0-1.444.945A4.555,4.555,0,0,0,186.308,91.549Z" fill="#e76e09"/>
    <path id="Path_34" data-name="Path 34" d="M238.133,126.433l-51.267-25.057a4.122,4.122,0,0,0-3.322-.132,4.448,4.448,0,0,0-2.437,2.392,4.839,4.839,0,0,0-.124,3.514,4.5,4.5,0,0,0,2.26,2.578l51.268,25.058a4.09,4.09,0,0,0,3.327.148,4.282,4.282,0,0,0,1.445-.945,4.576,4.576,0,0,0,.986-1.463,4.945,4.945,0,0,0,.09-3.5A4.611,4.611,0,0,0,238.133,126.433Z" fill="#e76e09"/>
  </g>
</svg>
