<svg xmlns="http://www.w3.org/2000/svg" xmlns:xlink="http://www.w3.org/1999/xlink" width="79.755" height="40" viewBox="0 0 79.755 40">
  <defs>
    <linearGradient id="linear-gradient" x1="0.5" x2="0.5" y2="1" gradientUnits="objectBoundingBox">
      <stop offset="0" stop-color="#e76e09"/>
      <stop offset="1" stop-color="#743705"/>
    </linearGradient>
  </defs>
  <g id="logo" transform="translate(25.877 -128)">
    <path id="Path_2" data-name="Path 2" d="M78.923,16.87a10.416,10.416,0,0,0-4.491,1.018l-.345-.586a11.161,11.161,0,0,1,9.154-.192.7.7,0,0,0,.547,0,.759.759,0,0,0,.4-.4h0A.822.822,0,0,0,84.2,16.1a.789.789,0,0,0-.164-.261.74.74,0,0,0-.248-.172,12.588,12.588,0,0,0-10.482.307L66.4,4.351l-.636.422L63.05.338a.706.706,0,0,0-.384-.306.666.666,0,0,0-.48.027l-3.9,1.834a.721.721,0,0,0-.372.405.776.776,0,0,0,.008.564.718.718,0,0,0,.384.393.664.664,0,0,0,.534-.009L62.2,1.663l2.382,3.9L63.9,6l4.154,6.989L56.386,31.136a2.666,2.666,0,0,1-.927.832,2.511,2.511,0,0,1-1.182.3h-.036a1.358,1.358,0,0,0,.091-.48,1.306,1.306,0,0,0-.089-.478,1.252,1.252,0,0,0-.256-.405,1.176,1.176,0,0,0-.384-.271,1.124,1.124,0,0,0-.453-.094H49.577l1.4,1.728H36.768v-.586H16.623L17.7,34.438H36.768v-.7H54.086a4.187,4.187,0,0,0,1.971-.5A4.446,4.446,0,0,0,57.6,31.856L68.859,14.345,70.8,17.59a13.722,13.722,0,0,0-3.438,4.242,14.461,14.461,0,0,0-1.58,5.329.807.807,0,0,0,.162.567.726.726,0,0,0,.493.282.709.709,0,0,0,.538-.167.789.789,0,0,0,.271-.518,12.847,12.847,0,0,1,1.367-4.674A12.2,12.2,0,0,1,71.586,18.9l.364.615a11.712,11.712,0,0,0-3.8,6.832,12.123,12.123,0,0,0,1.257,7.81,11.133,11.133,0,0,0,5.722,5.123,10.407,10.407,0,0,0,7.5.033A11.119,11.119,0,0,0,88.4,34.244a12.119,12.119,0,0,0,1.319-7.8,11.725,11.725,0,0,0-3.743-6.865,10.608,10.608,0,0,0-7.049-2.711Zm0,18.106a5.964,5.964,0,0,1-3.434-1.095A6.478,6.478,0,0,1,73.2,30.96a6.884,6.884,0,0,1-.369-3.768A6.67,6.67,0,0,1,74.5,23.84l1.273,2.131a4.322,4.322,0,0,0,.157,5.129,3.885,3.885,0,0,0,2.212,1.386,3.735,3.735,0,0,0,2.549-.36,4.047,4.047,0,0,0,1.789-1.951,4.352,4.352,0,0,0,.259-2.7,4.171,4.171,0,0,0-1.383-2.29,3.791,3.791,0,0,0-2.429-.892,3.585,3.585,0,0,0-.645.058L77.014,22.2A5.875,5.875,0,0,1,79.9,21.95a6.012,6.012,0,0,1,2.678,1.167,6.451,6.451,0,0,1,1.881,2.326,6.833,6.833,0,0,1,.672,2.976,6.75,6.75,0,0,1-1.819,4.636,6.049,6.049,0,0,1-4.39,1.921Z" transform="translate(-36 128)" fill="url(#linear-gradient)"/>
    <path id="Path_3" data-name="Path 3" d="M72.7,9.41a.643.643,0,0,0,.755-.557V8.825c.555,0,1-1.334,1-2.986s-.445-2.986-1-2.986V2.71a.643.643,0,0,0-.755-.557c-2.554.269-4.509,1.8-4.509,3.629S70.15,9.142,72.7,9.41Z" transform="translate(-36 128)" fill="url(#linear-gradient)"/>
    <path id="Path_4" data-name="Path 4" d="M15.259,30.714H17.85A6.829,6.829,0,0,1,19.275,23.8a5.97,5.97,0,0,1,8.768,0,6.829,6.829,0,0,1,1.425,6.915h4.918a12.626,12.626,0,0,0,.218-2.285,12.2,12.2,0,0,0-.636-3.888l1.145.029a12.524,12.524,0,0,0-4.791-7.219,11.555,11.555,0,0,0-16.591,3.245A12.866,12.866,0,0,0,12.2,23.9l1.364.038a12.163,12.163,0,0,0-.284,8.176,11.444,11.444,0,0,0,4.912,6.326,10.447,10.447,0,0,0,7.647,1.308,10.9,10.9,0,0,0,6.552-4.366h-15.3Z" transform="translate(-36 128)" fill="url(#linear-gradient)"/>
    <path id="Path_5" data-name="Path 5" d="M64.2,14.45a4.637,4.637,0,0,0-3.036-7.584V6.184H58.5v.806c-4.854,1.2-11.373,4.426-14.418,7.133C42.377,15.641,62.077,16.841,64.2,14.45ZM63.614,8.8s-3.791-2.3-9.936,1.44c0,0,6.545-5.376,9.936-1.44Z" transform="translate(-36 128)" fill="url(#linear-gradient)"/>
    <path id="Path_6" data-name="Path 6" d="M46.6,18.445a.485.485,0,0,0,.2-.18A.522.522,0,0,0,46.868,18l.018-.826a.517.517,0,0,0-.054-.241.486.486,0,0,0-.157-.183.453.453,0,0,0-.222-.08.447.447,0,0,0-.231.043L42.4,18.589a.473.473,0,0,0-.184.157.51.51,0,0,0-.088.231.52.52,0,0,0,.03.247.493.493,0,0,0,.141.2l.609.518a.466.466,0,0,0,.237.106.456.456,0,0,0,.254-.039Z" transform="translate(-36 128)" fill="url(#linear-gradient)"/>
    <path id="Path_7" data-name="Path 7" d="M43.686,20.8l3.282-1.6a.285.285,0,0,0,.141-.162.3.3,0,0,0-.008-.22.282.282,0,0,0-.152-.151.262.262,0,0,0-.209.005l-3.282,1.6a.273.273,0,0,0-.088.066.292.292,0,0,0-.058.1.306.306,0,0,0,.007.224.289.289,0,0,0,.063.092.27.27,0,0,0,.092.06.261.261,0,0,0,.212-.01Z" transform="translate(-36 128)" fill="url(#linear-gradient)"/>
    <path id="Path_8" data-name="Path 8" d="M44.023,21.564l3.282-1.6a.285.285,0,0,0,.141-.162.305.305,0,0,0-.008-.22.281.281,0,0,0-.152-.151.261.261,0,0,0-.208.005l-3.282,1.6a.276.276,0,0,0-.088.066.294.294,0,0,0-.058.1.3.3,0,0,0,.007.223.291.291,0,0,0,.063.093.272.272,0,0,0,.092.06.261.261,0,0,0,.212-.01Z" transform="translate(-36 128)" fill="url(#linear-gradient)"/>
    <path id="Path_9" data-name="Path 9" d="M44.359,22.332l3.282-1.6a.284.284,0,0,0,.141-.162.3.3,0,0,0-.008-.22.282.282,0,0,0-.152-.151.261.261,0,0,0-.208.005l-3.282,1.6a.286.286,0,0,0-.143.162.307.307,0,0,0,.007.222h0a.283.283,0,0,0,.154.151.263.263,0,0,0,.21-.007Z" transform="translate(-36 128)" fill="url(#linear-gradient)"/>
    <path id="Path_10" data-name="Path 10" d="M47.75,20.969l-3.282,1.6a.275.275,0,0,0-.088.066.292.292,0,0,0-.058.1.3.3,0,0,0,.007.224.29.29,0,0,0,.063.093.272.272,0,0,0,.092.06.261.261,0,0,0,.212-.01l3.282-1.6a.286.286,0,0,0,.143-.162.306.306,0,0,0-.006-.222.282.282,0,0,0-.061-.094.265.265,0,0,0-.091-.061.253.253,0,0,0-.211.011Z" transform="translate(-36 128)" fill="url(#linear-gradient)"/>
    <path id="Path_11" data-name="Path 11" d="M44.668,23.725a.283.283,0,0,0,.154.151.263.263,0,0,0,.21-.007l3.282-1.6a.285.285,0,0,0,.141-.162.306.306,0,0,0-.008-.22.281.281,0,0,0-.152-.151.261.261,0,0,0-.209.005l-3.282,1.6a.287.287,0,0,0-.143.163.306.306,0,0,0,.007.222Z" transform="translate(-36 128)" fill="url(#linear-gradient)"/>
    <path id="Path_12" data-name="Path 12" d="M57.986,19.942l.609-.519a.492.492,0,0,0,.141-.2.519.519,0,0,0,.03-.247.51.51,0,0,0-.088-.232.474.474,0,0,0-.184-.157l-3.827-1.872a.445.445,0,0,0-.231-.045.452.452,0,0,0-.222.08.485.485,0,0,0-.158.184.516.516,0,0,0-.053.242l.018.826a.533.533,0,0,0,.078.261.5.5,0,0,0,.194.181l3.2,1.565a.456.456,0,0,0,.254.038A.466.466,0,0,0,57.986,19.942Z" transform="translate(-36 128)" fill="url(#linear-gradient)"/>
    <path id="Path_13" data-name="Path 13" d="M57.568,20.652a.306.306,0,0,0,.007-.222.286.286,0,0,0-.143-.162l-3.282-1.6a.262.262,0,0,0-.208-.005.282.282,0,0,0-.152.151.3.3,0,0,0-.008.22.285.285,0,0,0,.141.162L57.2,20.8a.262.262,0,0,0,.21.007.282.282,0,0,0,.154-.151Z" transform="translate(-36 128)" fill="url(#linear-gradient)"/>
    <path id="Path_14" data-name="Path 14" d="M57.232,21.42a.307.307,0,0,0,.007-.222.286.286,0,0,0-.143-.162l-3.282-1.6a.261.261,0,0,0-.209-.005.281.281,0,0,0-.152.151.305.305,0,0,0-.008.22.285.285,0,0,0,.141.162l3.282,1.6a.262.262,0,0,0,.21.007.282.282,0,0,0,.154-.151Z" transform="translate(-36 128)" fill="url(#linear-gradient)"/>
    <path id="Path_15" data-name="Path 15" d="M56.9,22.188a.307.307,0,0,0,.007-.222.286.286,0,0,0-.143-.162l-3.282-1.6a.261.261,0,0,0-.208-.005.282.282,0,0,0-.152.151.305.305,0,0,0-.008.22.285.285,0,0,0,.141.162l3.282,1.6a.263.263,0,0,0,.21.007.283.283,0,0,0,.154-.151Z" transform="translate(-36 128)" fill="url(#linear-gradient)"/>
    <path id="Path_16" data-name="Path 16" d="M56.559,22.956a.306.306,0,0,0,.007-.222.286.286,0,0,0-.143-.163l-3.282-1.6a.261.261,0,0,0-.208-.005.281.281,0,0,0-.152.151.3.3,0,0,0-.008.22.284.284,0,0,0,.141.162L56.2,23.1a.263.263,0,0,0,.21.007.283.283,0,0,0,.154-.151Z" transform="translate(-36 128)" fill="url(#linear-gradient)"/>
    <path id="Path_17" data-name="Path 17" d="M56.086,23.341l-3.282-1.6a.261.261,0,0,0-.209-.005.281.281,0,0,0-.152.151.305.305,0,0,0-.008.22.285.285,0,0,0,.141.162l3.282,1.6a.263.263,0,0,0,.21.007.283.283,0,0,0,.154-.151h0a.306.306,0,0,0,.007-.222.287.287,0,0,0-.143-.163Z" transform="translate(-36 128)" fill="url(#linear-gradient)"/>
    <path id="Path_18" data-name="Path 18" d="M54.159,29.264a2.369,2.369,0,0,0,1.715-.752,2.657,2.657,0,0,0,0-3.622,2.37,2.37,0,0,0-1.715-.752H51.568L52.086,20a2.018,2.018,0,0,0,.927-1.642,2.605,2.605,0,0,0-5.127,0A2.018,2.018,0,0,0,48.814,20l.518,4.138H46.741a2.285,2.285,0,0,0-.932.2,2.4,2.4,0,0,0-.786.563l-1.7-2.093a3.12,3.12,0,0,0-1.253.262,3.265,3.265,0,0,0-1.062.749,3.473,3.473,0,0,0-.709,1.122,3.622,3.622,0,0,0-.249,1.323h0a4.488,4.488,0,0,0,.308,1.639,4.3,4.3,0,0,0,.879,1.389,4.047,4.047,0,0,0,1.316.928,3.868,3.868,0,0,0,1.552.325H49.6l-1.036-1.277Zm-4.864-9a3.008,3.008,0,0,0,2.309,0l-.482,3.869H49.786ZM46.559,26.7a1.673,1.673,0,0,1,.451-1.146,1.5,1.5,0,0,1,1.085-.476h1.4a.209.209,0,0,0,.084.052.2.2,0,0,0,.1.006.311.311,0,0,0,.127-.058h1.3a.2.2,0,0,0,.127.058.232.232,0,0,0,.1-.009.239.239,0,0,0,.085-.048h1.4a1.5,1.5,0,0,1,1.085.476A1.673,1.673,0,0,1,54.35,26.7h0a1.673,1.673,0,0,1-.451,1.146,1.5,1.5,0,0,1-1.085.476h-4.7a1.492,1.492,0,0,1-.354-.048l-1.173-1.45a.346.346,0,0,1-.027-.125Z" transform="translate(-36 128)" fill="url(#linear-gradient)"/>
    <path id="Path_19" data-name="Path 19" d="M19.75,28.429a4.223,4.223,0,0,0,.654,2.285h6.518a4.279,4.279,0,0,0,.627-1.791,4.349,4.349,0,0,0-.2-1.9,4.16,4.16,0,0,0-.989-1.6,3.87,3.87,0,0,0-1.564-.959,3.714,3.714,0,0,0-1.805-.114,3.811,3.811,0,0,0-1.661.755,4.086,4.086,0,0,0-1.162,1.463A4.323,4.323,0,0,0,19.75,28.429Z" transform="translate(-36 128)" fill="url(#linear-gradient)"/>
    <path id="Path_20" data-name="Path 20" d="M39.841,19.26h-3.7a1.275,1.275,0,0,0-.655.182,1.365,1.365,0,0,0-.485.5,1.472,1.472,0,0,0-.033,1.383l.954,1.9a1.38,1.38,0,0,0,.351.445,1.293,1.293,0,0,0,.492.256,1.251,1.251,0,0,0,.548.022,1.279,1.279,0,0,0,.509-.215l2.736-1.9a1.389,1.389,0,0,0,.514-.683,1.474,1.474,0,0,0,.031-.872h0a1.375,1.375,0,0,0-.467-.737A1.252,1.252,0,0,0,39.841,19.26Z" transform="translate(-36 128)" fill="url(#linear-gradient)"/>
    <path id="Path_21" data-name="Path 21" d="M13.3,19.7a12.745,12.745,0,0,1,4.482-4.2,11.91,11.91,0,0,1,12.863.8A13.75,13.75,0,0,1,32.4,17.84a55.851,55.851,0,0,0,8.545-.058c1.091-.125,2.227-3.687,2.227-3.687.164-.7-.455-1.411-2,0s-7.682-1.8-9.136-2.755c-2-1.315-10.5-1.344-10.864,1.008-1.691.547-8.954,2.5-11.045,9.216,0,0,.591.365,1.682-.73a10.851,10.851,0,0,1,1.473-1.085A.1.1,0,0,1,13.3,19.7Z" transform="translate(-36 128)" fill="url(#linear-gradient)"/>
  </g>
</svg>
