<svg xmlns="http://www.w3.org/2000/svg" width="39" height="39" viewBox="0 0 39 39">
  <path id="instagram" d="M19.5,12.341a10,10,0,1,0,10,10A9.982,9.982,0,0,0,19.5,12.341Zm0,16.5a6.5,6.5,0,1,1,6.5-6.5,6.512,6.512,0,0,1-6.5,6.5ZM32.235,11.932A2.332,2.332,0,1,1,29.9,9.6,2.327,2.327,0,0,1,32.235,11.932ZM38.856,14.3c-.148-3.124-.861-5.892-3.15-8.172s-5.046-2.994-8.17-3.15c-3.219-.183-12.868-.183-16.087,0-3.115.148-5.882.862-8.17,3.142S.287,11.166.13,14.29c-.183,3.22-.183,12.871,0,16.091.148,3.124.861,5.892,3.15,8.172s5.046,2.994,8.17,3.15c3.219.183,12.868.183,16.087,0,3.123-.148,5.89-.862,8.17-3.15s2.993-5.047,3.15-8.172c.183-3.22.183-12.862,0-16.082ZM34.7,33.836a6.581,6.581,0,0,1-3.706,3.707c-2.567,1.018-8.657.783-11.493.783S10.562,38.553,8,37.543A6.581,6.581,0,0,1,4.3,33.836c-1.018-2.567-.783-8.659-.783-11.5s-.226-8.937.783-11.5A6.581,6.581,0,0,1,8,7.137c2.567-1.018,8.657-.783,11.493-.783s8.935-.226,11.493.783A6.581,6.581,0,0,1,34.7,10.844c1.018,2.567.783,8.659.783,11.5S35.716,31.277,34.7,33.836Z" transform="translate(0.007 -2.84)" fill="#e76e09"/>
</svg>
