<svg xmlns="http://www.w3.org/2000/svg" width="40" height="40" viewBox="0 0 40 40">
  <g id="twitter" transform="translate(-770 -2443)">
    <rect id="twitter-2" data-name="twitter" width="40" height="40" transform="translate(770 2443)" fill="#fff"/>
    <path id="twitter-3" data-name="twitter" d="M35.888,11.853c.025.355.025.711.025,1.066,0,10.838-8.249,23.325-23.325,23.325A23.167,23.167,0,0,1,0,32.564a16.959,16.959,0,0,0,1.98.1,16.418,16.418,0,0,0,10.178-3.5,8.212,8.212,0,0,1-7.665-5.685,10.338,10.338,0,0,0,1.548.127A8.67,8.67,0,0,0,8.2,23.325a8.2,8.2,0,0,1-6.574-8.046v-.1A8.256,8.256,0,0,0,5.33,16.218,8.21,8.21,0,0,1,2.792,5.254a23.3,23.3,0,0,0,16.9,8.579,9.255,9.255,0,0,1-.2-1.878A8.206,8.206,0,0,1,33.68,6.345a16.14,16.14,0,0,0,5.2-1.98,8.176,8.176,0,0,1-3.6,4.518A16.435,16.435,0,0,0,40,7.614a17.622,17.622,0,0,1-4.112,4.239Z" transform="translate(770 2443)" fill="#e76e09"/>
  </g>
</svg>
