<svg xmlns="http://www.w3.org/2000/svg" width="39" height="28.125" viewBox="0 0 39 28.125">
  <path id="youtube" d="M39.279,9.088a4.966,4.966,0,0,0-3.448-3.559c-3.041-.841-15.237-.841-15.237-.841s-12.2,0-15.237.841A4.966,4.966,0,0,0,1.909,9.088c-.815,3.14-.815,9.69-.815,9.69s0,6.551.815,9.69a4.889,4.889,0,0,0,3.448,3.5c3.041.841,15.237.841,15.237.841s12.2,0,15.237-.841a4.889,4.889,0,0,0,3.448-3.5c.815-3.14.815-9.69.815-9.69S40.094,12.228,39.279,9.088ZM16.605,24.726V12.831L26.8,18.779,16.605,24.726Z" transform="translate(-1.094 -4.688)" fill="#e76e09"/>
</svg>
