<svg id="icon-chopper" xmlns="http://www.w3.org/2000/svg" xmlns:xlink="http://www.w3.org/1999/xlink" width="460" height="234.63" viewBox="0 0 460 234.63">
  <defs>
    <linearGradient id="linear-gradient" x1="0.5" x2="0.5" y2="1" gradientUnits="objectBoundingBox">
      <stop offset="0" stop-color="#e76e09"/>
      <stop offset="1" stop-color="#743705"/>
    </linearGradient>
  </defs>
  <path id="Path_35" data-name="Path 35" d="M167.168,514.646a51.307,51.307,0,0,1,31.795,10.95l86.494-88.6-5.174-31.745a14.516,14.516,0,0,1,19.238-16.023l54.448,19.64a3.767,3.767,0,1,1-2.562,7.082l-54.448-19.589a6.969,6.969,0,0,0-9.242,7.685l5.174,31.795a5.044,5.044,0,0,1,1,.8,5.836,5.836,0,0,1,.1,8.187l-9.744,10L437.6,526a4.269,4.269,0,0,1-3.616,7.735L301.329,472.152l-26.521,11.6L264.461,528.81l12.557,20.544,8.288-10.1a3.64,3.64,0,0,1,5.626,4.621l-12.055,14.667a12.371,12.371,0,0,0-.4,15.219l13.562,18.484a12.466,12.466,0,0,0,10,5.073H417.76a12.4,12.4,0,0,0,7.133-2.26l42.9-30.288-1.607-2.26,46.11-32.548-1.256,16.676-37.37,26.42-1.607-2.26-42.9,30.288a19.672,19.672,0,0,1-11.352,3.616H302.133a19.841,19.841,0,0,1-15.872-8.037L272.7,578.185a19.663,19.663,0,0,1-1.155-21.6,2.23,2.23,0,0,1-.4-.553L255.42,530.367l13.763-60.023L207.25,533.733a51.7,51.7,0,1,1-40.083-19.087Zm0,93.124a41.393,41.393,0,0,0,41.389-41.383,40.968,40.968,0,0,0-8.639-25.271l-16.375,16.726a18.832,18.832,0,0,1,2.11,8.539A18.541,18.541,0,1,1,175.3,549.806l16.375-16.776a41.389,41.389,0,1,0-24.512,74.741Z" transform="translate(-115.426 -383.489)" fill="url(#linear-gradient)"/>
  <path id="Path_36" data-name="Path 36" d="M361.3,447.59c-1.909.2-3.566-1-3.566-2.461v-.151c-2.612,0-4.722-5.977-4.722-13.361s2.11-13.361,4.722-13.361v-.6c0-1.507,1.658-2.662,3.566-2.461,12.055,1.206,21.3,8.037,21.3,16.224S373.352,446.385,361.3,447.59Z" transform="translate(-223.312 -383.489)" fill="url(#linear-gradient)"/>
  <path id="Path_37" data-name="Path 37" d="M301.076,506.86c8.84,0,16.023,5.676,16.023,12.658,0,3.918-2.26,7.384-5.776,9.694l-3.215,24.461h12a19.379,19.379,0,0,1,19.338,19.338h0a19.379,19.379,0,0,1-19.338,19.338H282.04A19.379,19.379,0,0,1,262.7,573.012h0a21.282,21.282,0,0,1,.5-4.42l-8.438-6.329a6.405,6.405,0,0,1-1.306-8.941h0a6.405,6.405,0,0,1,8.941-1.306l7.735,5.776a19.193,19.193,0,0,1,11.954-4.169h12l-3.215-24.461c-3.516-2.311-5.776-5.827-5.776-9.694C285.053,512.536,292.236,506.86,301.076,506.86Zm-30.941,54.247a4.716,4.716,0,1,0,3.34,1.381,4.721,4.721,0,0,0-3.34-1.381Zm50.229,23.809a11.7,11.7,0,1,0-11.7-11.7A11.7,11.7,0,0,0,320.364,584.916Zm-23.457-31.242H305.3l3.014-22.9a19.7,19.7,0,0,1-14.365,0Z" transform="translate(-79.36 -383.489)" fill="url(#linear-gradient)"/>
  <path id="Path_38" data-name="Path 38" d="M242.764,509.774l23.909,11.05a2.954,2.954,0,0,1,.6,4.973l-3.817,3.064a2.951,2.951,0,0,1-3.064.4L240.4,520.02a2.963,2.963,0,0,1-1.708-2.612l-.151-4.872a2.989,2.989,0,0,1,4.219-2.763Z" transform="translate(5.373 -383.489)" fill="url(#linear-gradient)"/>
  <path id="Path_39" data-name="Path 39" d="M248.332,521.276l20.544,9.493a1.742,1.742,0,1,1-1.457,3.165l-20.544-9.493a1.742,1.742,0,1,1,1.457-3.165Z" transform="translate(-3.46 -383.489)" fill="url(#linear-gradient)"/>
  <path id="Path_40" data-name="Path 40" d="M248.121,526.7a1.749,1.749,0,0,1,2.311-.854l20.544,9.493a1.749,1.749,0,0,1,.854,2.31h0a1.749,1.749,0,0,1-2.311.854l-20.544-9.493a1.782,1.782,0,0,1-.854-2.311Z" transform="translate(-7.669 -383.489)" fill="url(#linear-gradient)"/>
  <path id="Path_41" data-name="Path 41" d="M252.551,530.367l20.544,9.493a1.742,1.742,0,1,1-1.457,3.165l-20.544-9.493a1.742,1.742,0,1,1,1.457-3.165Z" transform="translate(-11.899 -383.489)" fill="url(#linear-gradient)"/>
  <path id="Path_42" data-name="Path 42" d="M254.658,534.938l20.544,9.493a1.742,1.742,0,1,1-1.457,3.165L253.2,538.1a1.75,1.75,0,0,1-.854-2.311,1.723,1.723,0,0,1,2.311-.854Z" transform="translate(-16.115 -383.489)" fill="url(#linear-gradient)"/>
  <path id="Path_43" data-name="Path 43" d="M275.857,552.117l-20.544-9.493a1.742,1.742,0,1,1,1.457-3.165l20.544,9.493a1.742,1.742,0,1,1-1.457,3.165Z" transform="translate(-20.337 -383.489)" fill="url(#linear-gradient)"/>
  <path id="Path_44" data-name="Path 44" d="M340.79,519.97,320.8,529.212a2.951,2.951,0,0,1-3.064-.4l-3.817-3.064a2.959,2.959,0,0,1,.6-4.973l23.909-11.05a2.944,2.944,0,0,1,4.169,2.763l-.151,4.872a2.681,2.681,0,0,1-1.658,2.612Z" transform="translate(-143.134 -383.489)" fill="url(#linear-gradient)"/>
  <path id="Path_45" data-name="Path 45" d="M335.135,522.13a1.766,1.766,0,0,1-.854,2.311l-20.544,9.493a1.742,1.742,0,0,1-1.457-3.165l20.544-9.493a1.749,1.749,0,0,1,2.311.854Z" transform="translate(-134.264 -383.489)" fill="url(#linear-gradient)"/>
  <path id="Path_46" data-name="Path 46" d="M333.018,526.7h0a1.766,1.766,0,0,1-.854,2.311L311.62,538.5a1.765,1.765,0,0,1-2.311-.854h0a1.765,1.765,0,0,1,.854-2.31l20.544-9.493a1.708,1.708,0,0,1,2.311.854Z" transform="translate(-130.037 -383.489)" fill="url(#linear-gradient)"/>
  <path id="Path_47" data-name="Path 47" d="M330.916,531.221a1.766,1.766,0,0,1-.854,2.311l-20.544,9.493a1.742,1.742,0,1,1-1.457-3.164l20.544-9.493A1.749,1.749,0,0,1,330.916,531.221Z" transform="translate(-125.826 -383.489)" fill="url(#linear-gradient)"/>
  <path id="Path_48" data-name="Path 48" d="M328.806,535.792a1.766,1.766,0,0,1-.854,2.311L307.409,547.6a1.742,1.742,0,1,1-1.457-3.165l20.544-9.493a1.766,1.766,0,0,1,2.31.854Z" transform="translate(-121.606 -383.489)" fill="url(#linear-gradient)"/>
  <path id="Path_49" data-name="Path 49" d="M303.79,548.952l20.544-9.493a1.742,1.742,0,1,1,1.457,3.165l-20.544,9.493a1.766,1.766,0,0,1-2.311-.854,1.723,1.723,0,0,1,.854-2.311Z" transform="translate(-117.285 -383.489)" fill="url(#linear-gradient)"/>
  <path id="Path_50" data-name="Path 50" d="M168.819,581.2c-.4-1.306-.7-2.612-1-3.968l21.7-15.722a30.22,30.22,0,0,0-.4,4.822v.5Z" transform="translate(154.962 -383.489)" fill="url(#linear-gradient)"/>
  <path id="Path_51" data-name="Path 51" d="M182.783,514.646a53.9,53.9,0,0,1,7.585.552l-42.142,30.589,1.658,2.26-18.534,13.461a51.618,51.618,0,0,1,51.434-46.864Z" transform="translate(190.574 -383.489)" fill="url(#linear-gradient)"/>
  <path id="Path_52" data-name="Path 52" d="M131.3,595.665a29.314,29.314,0,0,0,23.708-46.512l1.406-1,1.758-23.608,1.708-1.256a51.739,51.739,0,1,1-72.631,70.32L105.631,580.6A29.469,29.469,0,0,0,131.3,595.665Z" transform="translate(242.06 -383.489)" fill="url(#linear-gradient)"/>
  <path id="Path_53" data-name="Path 53" d="M133.813,581.2h6.178a7.669,7.669,0,0,0,4.37-1.406L187.207,548.7l-1.658-2.26,63.489-46.01-1.708,17.178-54.2,39.279-1.658-2.26L148.631,585.72a14.45,14.45,0,0,1-8.639,2.813h-6.178a14.752,14.752,0,0,1-12.055-23.256,7.476,7.476,0,0,0,1.256-5.726,7.309,7.309,0,0,0-3.315-4.822l-12.155-7.685a3.645,3.645,0,1,1,3.868-6.178l12.155,7.685a14.717,14.717,0,0,1,4.119,21,7.219,7.219,0,0,0-.553,7.685,7.515,7.515,0,0,0,6.68,3.968Z" transform="translate(157.42 -383.489)" fill="url(#linear-gradient)"/>
  <path id="Path_54" data-name="Path 54" d="M175.553,502.44c-6.027,1.507-40.836-13.11-50.279-12.256s-18.886,25.767-24.06,24.462-48.923-23.356-48.923-23.356c11.8-16.776,41.188,4.47,46.763,2.712,5.575-1.708,15.621-17.229,20.594-21.5,6.027-5.174,46.462,8.187,48.571,7.534,2.16-.653,6.027-10.95,9.343-13.512,3.365-2.562,10.4,2.562,12.557,2.16,2.16-.452,58.868-93.225,55.453-84.636S181.58,500.883,175.553,502.44Z" transform="translate(214.28 -383.489)" fill="url(#linear-gradient)"/>
  <path id="Path_55" data-name="Path 55" d="M248.732,456.029s2.26-23.055,11.9-24.662,51.585,43.95,56.106,54.348S248.732,456.029,248.732,456.029Zm13.16-19.991c-2.361.2-3.667,9.544-3.667,9.544s2.562-7.434,5.174-4.822,20.393,14.416,20.393,14.416-19.539-19.388-21.9-19.137Z" transform="translate(-53.386 -383.489)" fill="url(#linear-gradient)"/>
  <path id="Path_56" data-name="Path 56" d="M120.98,577.332l29.585-22.151a18.479,18.479,0,1,1-29.585,22.151Z" transform="translate(237.057 -383.489)" fill="url(#linear-gradient)"/>
</svg>
